<?xml version="1.0" encoding="utf-8"?>
<!-- Generator: Adobe Illustrator 15.1.0, SVG Export Plug-In  -->
<!DOCTYPE svg PUBLIC "-//W3C//DTD SVG 1.1//EN" "http://www.w3.org/Graphics/SVG/1.1/DTD/svg11.dtd" [
	<!ENTITY ns_flows "http://ns.adobe.com/Flows/1.0/">
]>
<svg version="1.1"
	 xmlns="http://www.w3.org/2000/svg" xmlns:xlink="http://www.w3.org/1999/xlink" xmlns:a="http://ns.adobe.com/AdobeSVGViewerExtensions/3.0/"
	 x="0px" y="0px" width="253px" height="48px" viewBox="0 0 253 48" enable-background="new 0 0 253 48" xml:space="preserve">
<defs>
</defs>
<polygon fill-rule="evenodd" clip-rule="evenodd" fill="#003796" points="76.064,25.166 76.064,5.285 89.503,5.285 89.503,9.043 
	80.543,9.043 80.543,12.945 88.498,12.945 88.498,16.617 80.543,16.617 80.543,21.407 90.164,21.407 90.164,25.166 "/>
<path fill-rule="evenodd" clip-rule="evenodd" fill="#003796" d="M101.1,25.567c-1.397,0-2.604-0.196-3.619-0.588
	c-1.015-0.392-1.852-0.937-2.513-1.635c-0.66-0.698-1.148-1.53-1.464-2.496c-0.315-0.966-0.474-2.032-0.474-3.199V5.285h4.48v11.991
	c0,0.804,0.091,1.487,0.272,2.051s0.431,1.023,0.747,1.377s0.699,0.607,1.149,0.76c0.45,0.153,0.943,0.229,1.479,0.229
	c1.091,0,1.977-0.334,2.656-1.004s1.02-1.808,1.02-3.414V5.285h4.479v12.364c0,1.167-0.163,2.238-0.488,3.213
	c-0.326,0.976-0.823,1.812-1.494,2.51c-0.67,0.698-1.521,1.238-2.556,1.621C103.741,25.376,102.516,25.567,101.1,25.567"/>
<path fill-rule="evenodd" clip-rule="evenodd" fill="#003796" d="M119.559,8.871c-0.325,0-0.617,0.01-0.875,0.029
	s-0.502,0.038-0.732,0.058v5.393h1.264c1.685,0,2.891-0.21,3.618-0.631c0.728-0.421,1.091-1.138,1.091-2.152
	c0-0.976-0.369-1.669-1.106-2.08C122.081,9.077,120.995,8.871,119.559,8.871 M119.3,5.056c2.987,0,5.274,0.531,6.863,1.592
	s2.383,2.711,2.383,4.949c0,1.396-0.321,2.529-0.962,3.399s-1.565,1.554-2.771,2.051c0.402,0.498,0.823,1.066,1.264,1.707
	c0.44,0.641,0.876,1.311,1.307,2.009c0.431,0.698,0.847,1.424,1.249,2.18c0.403,0.756,0.776,1.497,1.12,2.224h-5.025
	c-0.364-0.65-0.732-1.31-1.105-1.979c-0.373-0.669-0.756-1.32-1.148-1.951c-0.393-0.631-0.78-1.229-1.163-1.793
	s-0.766-1.076-1.149-1.535h-2.211v7.258h-4.48V5.572c0.977-0.191,1.986-0.325,3.03-0.402C117.544,5.094,118.477,5.056,119.3,5.056z"
	/>
<path fill-rule="evenodd" clip-rule="evenodd" fill="#003796" d="M151.429,15.211c0,1.702-0.254,3.199-0.762,4.49
	c-0.507,1.291-1.201,2.371-2.082,3.241c-0.88,0.871-1.929,1.525-3.144,1.965c-1.216,0.44-2.522,0.66-3.92,0.66
	c-1.359,0-2.642-0.22-3.848-0.66c-1.206-0.44-2.258-1.095-3.158-1.965c-0.9-0.87-1.608-1.95-2.125-3.241
	c-0.517-1.291-0.776-2.788-0.776-4.49s0.268-3.199,0.805-4.489c0.536-1.291,1.258-2.376,2.168-3.256
	c0.909-0.879,1.962-1.539,3.159-1.979c1.196-0.44,2.455-0.66,3.776-0.66c1.36,0,2.642,0.22,3.848,0.66s2.259,1.1,3.158,1.979
	c0.9,0.88,1.608,1.965,2.126,3.256C151.17,12.012,151.429,13.509,151.429,15.211 M136.238,15.211c0,0.976,0.12,1.855,0.359,2.639
	c0.24,0.784,0.584,1.458,1.034,2.023c0.45,0.564,1,0.999,1.651,1.305c0.65,0.306,1.397,0.458,2.24,0.458
	c0.823,0,1.565-0.153,2.226-0.458c0.66-0.306,1.215-0.741,1.665-1.305c0.45-0.564,0.795-1.239,1.034-2.023s0.358-1.664,0.358-2.639
	c0-0.975-0.119-1.86-0.358-2.653c-0.239-0.794-0.584-1.473-1.034-2.037c-0.45-0.564-1.005-0.999-1.665-1.305
	c-0.661-0.306-1.403-0.459-2.226-0.459c-0.842,0-1.589,0.158-2.24,0.474c-0.651,0.315-1.201,0.755-1.651,1.319
	c-0.449,0.564-0.794,1.243-1.034,2.037C136.357,13.38,136.238,14.255,136.238,15.211z"/>
<path fill-rule="evenodd" clip-rule="evenodd" fill="#003796" d="M162.967,9.789c-0.096,0.287-0.239,0.679-0.431,1.176
	c-0.191,0.498-0.411,1.071-0.66,1.721c-0.249,0.65-0.522,1.368-0.818,2.152c-0.297,0.784-0.599,1.606-0.905,2.467h5.657
	c-0.306-0.861-0.603-1.683-0.89-2.467c-0.287-0.784-0.56-1.501-0.818-2.152c-0.259-0.65-0.483-1.224-0.675-1.721
	C163.236,10.468,163.083,10.076,162.967,9.789 M168.337,25.166c-0.21-0.688-0.445-1.396-0.703-2.123
	c-0.259-0.727-0.513-1.454-0.761-2.18h-7.754c-0.249,0.727-0.503,1.454-0.761,2.18c-0.259,0.727-0.493,1.435-0.704,2.123h-4.652
	c0.747-2.142,1.455-4.121,2.126-5.938c0.669-1.816,1.325-3.528,1.967-5.135s1.272-3.132,1.896-4.576
	c0.622-1.444,1.268-2.854,1.938-4.231h4.278c0.65,1.377,1.292,2.788,1.924,4.231s1.269,2.969,1.91,4.576
	c0.641,1.606,1.297,3.318,1.967,5.135c0.67,1.817,1.378,3.796,2.125,5.938H168.337z"/>
<polygon fill-rule="evenodd" clip-rule="evenodd" fill="#003796" points="188.865,21.321 188.865,25.166 175.569,25.166 
	175.569,5.285 180.048,5.285 180.048,21.321 "/>
<path fill-rule="evenodd" clip-rule="evenodd" fill="#003796" d="M199.542,9.789c-0.096,0.287-0.239,0.679-0.431,1.176
	c-0.191,0.498-0.411,1.071-0.66,1.721c-0.249,0.65-0.521,1.368-0.818,2.152c-0.297,0.784-0.599,1.606-0.905,2.467h5.657
	c-0.306-0.861-0.603-1.683-0.89-2.467c-0.287-0.784-0.561-1.501-0.818-2.152c-0.259-0.65-0.483-1.224-0.675-1.721
	C199.81,10.468,199.657,10.076,199.542,9.789 M204.912,25.166c-0.211-0.688-0.445-1.396-0.704-2.123
	c-0.258-0.727-0.512-1.454-0.761-2.18h-7.753c-0.249,0.727-0.503,1.454-0.761,2.18c-0.259,0.727-0.493,1.435-0.704,2.123h-4.651
	c0.746-2.142,1.454-4.121,2.125-5.938c0.67-1.816,1.325-3.528,1.967-5.135s1.272-3.132,1.895-4.576
	c0.623-1.444,1.269-2.854,1.938-4.231h4.279c0.65,1.377,1.292,2.788,1.924,4.231s1.269,2.969,1.909,4.576
	c0.642,1.606,1.297,3.318,1.968,5.135c0.67,1.817,1.378,3.796,2.125,5.938H204.912z"/>
<path fill-rule="evenodd" clip-rule="evenodd" fill="#003796" d="M218.231,8.871c-0.325,0-0.617,0.01-0.876,0.029
	s-0.503,0.038-0.732,0.058v5.393h1.264c1.685,0,2.891-0.21,3.618-0.631c0.728-0.421,1.092-1.138,1.092-2.152
	c0-0.976-0.369-1.669-1.105-2.08C220.753,9.077,219.667,8.871,218.231,8.871 M217.972,5.056c2.987,0,5.274,0.531,6.863,1.592
	s2.384,2.711,2.384,4.949c0,1.396-0.32,2.529-0.962,3.399s-1.565,1.554-2.771,2.051c0.402,0.498,0.823,1.066,1.264,1.707
	c0.44,0.641,0.876,1.311,1.307,2.009c0.431,0.698,0.847,1.424,1.249,2.18c0.402,0.756,0.775,1.497,1.12,2.224H223.4
	c-0.364-0.65-0.732-1.31-1.105-1.979c-0.374-0.669-0.757-1.32-1.148-1.951c-0.393-0.631-0.78-1.229-1.163-1.793
	c-0.384-0.564-0.767-1.076-1.149-1.535h-2.211v7.258h-4.479V5.572c0.977-0.191,1.986-0.325,3.029-0.402
	C216.215,5.094,217.149,5.056,217.972,5.056z"/>
<path fill-rule="evenodd" clip-rule="evenodd" fill="#003796" d="M236.432,5.285c0.345,0.631,0.741,1.411,1.191,2.338
	c0.449,0.928,0.919,1.932,1.407,3.012c0.488,1.08,0.972,2.185,1.45,3.313s0.929,2.19,1.35,3.185c0.421-0.995,0.871-2.056,1.35-3.185
	s0.962-2.233,1.45-3.313c0.488-1.081,0.957-2.084,1.407-3.012c0.449-0.928,0.847-1.707,1.191-2.338h4.078
	c0.191,1.32,0.368,2.797,0.531,4.432c0.162,1.635,0.306,3.337,0.431,5.106c0.124,1.769,0.239,3.543,0.345,5.321
	c0.105,1.779,0.196,3.452,0.272,5.021h-4.365c-0.057-1.932-0.134-4.036-0.229-6.311c-0.096-2.276-0.239-4.571-0.431-6.885
	c-0.345,0.803-0.728,1.693-1.148,2.668c-0.422,0.976-0.838,1.951-1.249,2.926c-0.412,0.975-0.81,1.908-1.192,2.797
	s-0.708,1.649-0.977,2.281h-3.129c-0.269-0.631-0.594-1.392-0.978-2.281c-0.383-0.889-0.779-1.822-1.191-2.797
	c-0.411-0.976-0.827-1.951-1.249-2.926c-0.421-0.975-0.804-1.865-1.148-2.668c-0.191,2.314-0.335,4.609-0.431,6.885
	c-0.096,2.275-0.173,4.379-0.23,6.311h-4.364c0.076-1.568,0.167-3.242,0.272-5.021c0.105-1.778,0.221-3.552,0.345-5.321
	c0.125-1.769,0.269-3.471,0.431-5.106c0.163-1.635,0.341-3.112,0.531-4.432H236.432z"/>
<path fill-rule="evenodd" clip-rule="evenodd" fill="#003796" d="M27.161,13.705L25.891,16l-1.078,2.4l-0.88,2.503L23.262,23.5
	l-0.452,2.682l-0.223,2.757l0.016,2.824l0.266,2.888c0.34,2.156,0.781,4.285,1.475,6.358l0.365,1.09l-1.147-0.083
	c-0.22-0.016-0.44-0.033-0.661-0.05c-4.468-0.362-9.161-1.681-12.707-4.542c-0.619-0.518-1.197-1.078-1.717-1.694l-0.748-0.887
	l9.164-2.796c-0.073-2.111,0.053-4.794,0.484-6.968c-3.455,1.052-6.901,2.135-10.358,3.178L5.91,28.592l0.125-1.15
	c0.042-0.384,0.113-0.763,0.189-1.142l0.005-0.022c0.839-3.589,3.077-6.745,5.677-9.292c3.073-3.01,6.759-5.343,10.661-7.127
	c2.277-1.042,4.645-1.846,7.061-2.501c0.274-0.074,0.551-0.145,0.828-0.211l2.562-0.617l-1.83,1.894
	C29.642,10.019,28.351,11.836,27.161,13.705 M46.412,6.307c0.684,0.123,1.368,0.248,2.045,0.405c0.615,0.144,1.226,0.309,1.828,0.5
	c2.85,0.909,5.655,2.292,7.739,4.482l0.858,0.902l-28.18,8.479l0.729-1.553c0.577-1.228,1.246-2.4,1.988-3.535l0.012-0.019
	c0.841-1.207,1.759-2.335,2.769-3.404l0.016-0.017c0.716-0.712,1.463-1.39,2.243-2.033l0.019-0.015
	c0.829-0.642,1.687-1.242,2.574-1.802l0.02-0.013c1.582-0.932,3.215-1.727,4.945-2.346l0.193-0.069L46.412,6.307z M49.668,42.34
	c0.76-0.448,1.518-0.895,2.27-1.335c0.891-0.554,1.767-1.131,2.611-1.72c0.864-0.638,1.71-1.298,2.522-1.967
	c0.817-0.713,1.614-1.45,2.373-2.193c0.752-0.782,1.479-1.588,2.163-2.396c0.664-0.842,1.297-1.706,1.898-2.593
	c0.555-0.892,1.071-1.804,1.55-2.739l0.819-1.92l0.616-1.972l0.394-2.023l0.151-2.066l-0.116-2.112l-0.162-1.045l-0.235-1.052
	l-0.575-1.792c-0.284-0.687-0.599-1.358-0.945-2.016c-0.378-0.643-0.783-1.266-1.217-1.872c-0.462-0.59-0.948-1.16-1.458-1.71
	c-0.722-0.718-1.481-1.389-2.28-2.022c-0.846-0.622-1.721-1.196-2.604-1.718c-0.952-0.522-1.926-0.998-2.901-1.424
	c-1.038-0.418-2.091-0.792-3.141-1.12c-2.319-0.658-4.671-1.111-7.071-1.342c-0.774-0.075-1.55-0.127-2.328-0.157
	c-4.56-0.176-9.117,0.35-13.54,1.459c-1.817,0.456-3.592,1.046-5.354,1.678l-2.937,1.218l-2.809,1.384l-2.669,1.541L12.188,9
	l-2.331,1.819l-2.134,1.939l-1.918,2.05l-1.681,2.149l-1.432,2.246l-0.605,1.14L1.55,21.508l-0.463,1.183L0.702,23.89l-0.304,1.211
	l-0.221,1.224l-0.133,1.233L0,28.799l0.049,1.247l0.145,1.249l0.243,1.25l0.339,1.233c0.736,2.239,2,4.247,3.553,6.01l0.758,0.787
	c1.769,1.682,3.71,2.984,5.864,4.073l1.038,0.485c1.419,0.612,2.867,1.136,4.357,1.548c3.432,0.95,6.983,1.339,10.54,1.328
	c1.78-0.006,3.56-0.098,5.328-0.303c0.854-0.099,1.704-0.222,2.554-0.346l-1.07-1.535c-3.24-4.764-4.929-10.547-4.717-16.305
	c0.007-0.192,0.019-0.385,0.03-0.577l0.032-0.533l32.092-9.685l-0.096,1.325c-0.616,6.834-6.133,11.606-11.405,15.31
	C49.909,37.861,50.098,39.966,49.668,42.34z"/>
<rect x="76.142" y="30.356" fill-rule="evenodd" clip-rule="evenodd" fill="#003796" width="176.859" height="16.746"/>
<path fill="#FFFFFF" d="M165.705,34.673h1.276v9.12h-1.276V34.673z M158.335,42.53c-0.088-0.211-0.204-0.479-0.349-0.803
	c-0.145-0.325-0.301-0.676-0.468-1.053c-0.166-0.377-0.344-0.766-0.533-1.165c-0.188-0.399-0.365-0.776-0.532-1.132
	c-0.167-0.355-0.322-0.673-0.467-0.954c-0.146-0.281-0.262-0.496-0.35-0.645c-0.096,1.035-0.175,2.156-0.236,3.362
	s-0.114,2.424-0.158,3.652h-1.25c0.035-0.79,0.074-1.586,0.118-2.389s0.095-1.592,0.151-2.369c0.058-0.776,0.119-1.533,0.185-2.27
	c0.065-0.737,0.138-1.434,0.217-2.092h1.119c0.236,0.386,0.491,0.842,0.763,1.369c0.272,0.526,0.544,1.077,0.816,1.651
	c0.271,0.575,0.535,1.149,0.789,1.724c0.255,0.574,0.487,1.099,0.697,1.572c0.211-0.474,0.443-0.998,0.698-1.572
	c0.254-0.575,0.518-1.149,0.789-1.724s0.544-1.125,0.816-1.651c0.271-0.526,0.526-0.983,0.763-1.369h1.119
	c0.298,2.939,0.521,5.979,0.671,9.12h-1.25c-0.044-1.228-0.097-2.446-0.158-3.652s-0.141-2.327-0.237-3.362
	c-0.087,0.149-0.203,0.364-0.349,0.645c-0.145,0.28-0.3,0.599-0.467,0.954c-0.167,0.355-0.345,0.733-0.533,1.132
	s-0.366,0.788-0.532,1.165c-0.167,0.377-0.323,0.729-0.468,1.053c-0.145,0.324-0.261,0.592-0.349,0.803H158.335z M150.4,32.305
	l-1.855,1.803l-0.618-0.553l1.685-2.026L150.4,32.305z M150.414,40.411c-0.281-0.764-0.56-1.502-0.836-2.218
	c-0.276-0.715-0.563-1.401-0.862-2.059c-0.307,0.658-0.599,1.344-0.875,2.059c-0.276,0.715-0.55,1.454-0.822,2.218H150.414z
	 M151.611,43.793c-0.149-0.395-0.29-0.783-0.421-1.165c-0.132-0.382-0.268-0.77-0.408-1.165h-4.132l-0.829,2.33h-1.329
	c0.351-0.965,0.68-1.858,0.986-2.678c0.308-0.82,0.607-1.599,0.901-2.336c0.295-0.737,0.586-1.44,0.876-2.112
	c0.289-0.671,0.592-1.335,0.907-1.994h1.172c0.315,0.658,0.618,1.323,0.908,1.994c0.289,0.671,0.581,1.375,0.874,2.112
	c0.295,0.737,0.595,1.516,0.902,2.336c0.307,0.82,0.636,1.713,0.986,2.678H151.611z M145.071,34.673
	c-0.334,0.965-0.651,1.857-0.954,2.678c-0.303,0.821-0.599,1.599-0.888,2.336c-0.29,0.737-0.577,1.441-0.862,2.112
	c-0.285,0.671-0.577,1.336-0.875,1.994h-1.197c-0.298-0.658-0.59-1.323-0.875-1.994c-0.285-0.671-0.575-1.375-0.869-2.112
	c-0.294-0.737-0.594-1.515-0.901-2.336c-0.307-0.82-0.623-1.713-0.947-2.678h1.408c0.474,1.386,0.939,2.72,1.395,4
	s0.926,2.483,1.408,3.605c0.482-1.114,0.952-2.314,1.408-3.599c0.457-1.285,0.917-2.621,1.382-4.007H145.071z M129.779,42.885
	c1.334,0,2-0.456,2-1.369c0-0.281-0.059-0.52-0.178-0.717c-0.119-0.197-0.278-0.368-0.48-0.513c-0.202-0.145-0.432-0.27-0.691-0.375
	c-0.258-0.105-0.533-0.21-0.822-0.315c-0.333-0.114-0.649-0.244-0.947-0.389s-0.557-0.315-0.776-0.513
	c-0.22-0.197-0.393-0.432-0.52-0.704c-0.127-0.272-0.191-0.601-0.191-0.987c0-0.798,0.272-1.421,0.816-1.869s1.294-0.671,2.25-0.671
	c0.553,0,1.055,0.059,1.507,0.178c0.452,0.118,0.783,0.248,0.993,0.388l-0.408,1.04c-0.184-0.114-0.458-0.226-0.822-0.336
	c-0.364-0.109-0.788-0.165-1.27-0.165c-0.246,0-0.474,0.026-0.685,0.079c-0.21,0.053-0.395,0.132-0.553,0.237
	c-0.158,0.105-0.283,0.239-0.375,0.401c-0.092,0.162-0.138,0.354-0.138,0.573c0,0.246,0.048,0.452,0.145,0.619
	c0.097,0.167,0.232,0.313,0.408,0.44c0.176,0.127,0.379,0.244,0.612,0.349c0.232,0.105,0.489,0.21,0.77,0.315
	c0.395,0.158,0.757,0.316,1.086,0.474c0.329,0.158,0.614,0.346,0.855,0.566c0.242,0.219,0.428,0.48,0.56,0.783
	c0.131,0.302,0.197,0.669,0.197,1.099c0,0.798-0.292,1.413-0.875,1.843c-0.583,0.43-1.406,0.645-2.468,0.645
	c-0.359,0-0.69-0.024-0.993-0.072s-0.573-0.105-0.81-0.171s-0.44-0.136-0.612-0.21s-0.305-0.138-0.401-0.19l0.382-1.053
	c0.202,0.114,0.509,0.242,0.921,0.382C128.678,42.814,129.183,42.885,129.779,42.885z M123.278,34.673v1.105h-2.869v8.014h-1.277
	v-8.014h-2.869v-1.105H123.278z M109.671,43.793v-9.12h5.566v1.092h-4.29v2.711h3.816v1.066h-3.816v3.158h4.619v1.092H109.671z
	 M108.329,42.688v1.105h-5.488v-9.12h1.277v8.014H108.329z M96.722,39.227c0-0.5-0.028-0.974-0.085-1.421
	c-0.057-0.447-0.153-0.838-0.29-1.171c-0.136-0.333-0.318-0.599-0.546-0.796c-0.228-0.197-0.509-0.296-0.842-0.296
	s-0.614,0.099-0.842,0.296c-0.228,0.198-0.41,0.463-0.546,0.796c-0.136,0.333-0.232,0.724-0.29,1.171
	c-0.057,0.448-0.085,0.921-0.085,1.421s0.028,0.974,0.085,1.421c0.057,0.448,0.153,0.838,0.29,1.171
	c0.136,0.333,0.318,0.599,0.546,0.796c0.228,0.197,0.509,0.296,0.842,0.296s0.614-0.099,0.842-0.296
	c0.228-0.198,0.41-0.463,0.546-0.796c0.136-0.333,0.232-0.724,0.29-1.171C96.694,40.2,96.722,39.727,96.722,39.227z M91.906,39.227
	c0-1.526,0.27-2.702,0.81-3.527s1.288-1.237,2.244-1.237s1.704,0.412,2.244,1.237s0.81,2,0.81,3.527s-0.27,2.702-0.81,3.527
	c-0.54,0.824-1.288,1.237-2.244,1.237s-1.704-0.413-2.244-1.237C92.176,41.929,91.906,40.753,91.906,39.227z M86.8,42.898
	c0.781,0,1.34-0.153,1.678-0.46c0.337-0.307,0.506-0.719,0.506-1.237c0-0.333-0.07-0.614-0.21-0.842
	c-0.14-0.229-0.325-0.41-0.553-0.546c-0.228-0.136-0.494-0.232-0.796-0.29c-0.303-0.057-0.612-0.085-0.928-0.085h-0.316v-1h0.434
	c0.219,0,0.445-0.022,0.678-0.066c0.233-0.044,0.445-0.123,0.638-0.237s0.351-0.27,0.474-0.467c0.123-0.197,0.184-0.445,0.184-0.744
	c0-0.245-0.044-0.456-0.132-0.631c-0.087-0.175-0.204-0.32-0.349-0.435c-0.145-0.114-0.312-0.195-0.5-0.243
	c-0.188-0.048-0.388-0.072-0.599-0.072c-0.421,0-0.778,0.061-1.072,0.184c-0.294,0.123-0.542,0.25-0.744,0.382l-0.473-0.935
	c0.105-0.07,0.239-0.147,0.401-0.23c0.163-0.083,0.345-0.16,0.546-0.23c0.202-0.07,0.419-0.129,0.651-0.178s0.476-0.072,0.73-0.072
	c0.482,0,0.899,0.059,1.25,0.178c0.351,0.118,0.641,0.285,0.868,0.5c0.229,0.215,0.399,0.47,0.514,0.764
	c0.114,0.294,0.171,0.612,0.171,0.954c0,0.474-0.136,0.879-0.408,1.217c-0.272,0.337-0.601,0.594-0.987,0.77
	c0.237,0.07,0.465,0.171,0.685,0.302s0.41,0.298,0.572,0.5c0.162,0.202,0.294,0.434,0.395,0.698
	c0.101,0.263,0.151,0.557,0.151,0.881c0,0.395-0.068,0.761-0.204,1.099c-0.136,0.338-0.347,0.629-0.632,0.875
	s-0.643,0.438-1.072,0.579c-0.43,0.141-0.939,0.21-1.526,0.21c-0.229,0-0.463-0.018-0.704-0.053
	c-0.242-0.035-0.467-0.079-0.678-0.131c-0.211-0.053-0.395-0.105-0.553-0.158c-0.158-0.053-0.272-0.096-0.342-0.131l0.237-1.066
	c0.149,0.07,0.397,0.162,0.744,0.276C85.876,42.841,86.3,42.898,86.8,42.898z"/>
<path fill="#FFFFFF" d="M243.774,37.002c0,0.316-0.063,0.621-0.19,0.915c-0.128,0.294-0.297,0.583-0.507,0.869
	c-0.211,0.285-0.447,0.565-0.711,0.842c-0.263,0.276-0.526,0.546-0.789,0.809c-0.149,0.149-0.323,0.325-0.521,0.526
	c-0.197,0.202-0.384,0.413-0.559,0.632c-0.176,0.219-0.322,0.43-0.441,0.631c-0.118,0.202-0.178,0.377-0.178,0.527h4.198v1.04
	h-5.527c-0.009-0.053-0.013-0.105-0.013-0.158s0-0.101,0-0.145c0-0.413,0.067-0.796,0.204-1.151
	c0.136-0.355,0.313-0.691,0.533-1.007c0.219-0.316,0.465-0.614,0.736-0.895c0.272-0.281,0.539-0.553,0.803-0.815
	c0.22-0.211,0.428-0.419,0.625-0.625s0.373-0.413,0.526-0.619c0.153-0.206,0.276-0.419,0.369-0.638
	c0.092-0.219,0.138-0.452,0.138-0.697c0-0.263-0.042-0.487-0.125-0.671c-0.083-0.184-0.195-0.337-0.336-0.46
	c-0.14-0.123-0.305-0.213-0.493-0.27c-0.188-0.057-0.388-0.085-0.599-0.085c-0.255,0-0.487,0.035-0.697,0.105
	c-0.211,0.07-0.399,0.151-0.566,0.244c-0.166,0.092-0.307,0.188-0.421,0.29c-0.114,0.101-0.202,0.177-0.263,0.23l-0.605-0.868
	c0.078-0.088,0.197-0.195,0.355-0.322c0.157-0.128,0.346-0.248,0.565-0.362c0.22-0.114,0.465-0.21,0.737-0.289
	c0.271-0.079,0.565-0.119,0.881-0.119c0.957,0,1.674,0.221,2.152,0.665C243.535,35.57,243.774,36.195,243.774,37.002
	 M236.352,37.002c0,0.316-0.063,0.621-0.191,0.915c-0.127,0.294-0.296,0.583-0.506,0.869c-0.211,0.285-0.447,0.565-0.711,0.842
	c-0.263,0.276-0.526,0.546-0.79,0.809c-0.148,0.149-0.322,0.325-0.52,0.526c-0.197,0.202-0.384,0.413-0.559,0.632
	c-0.176,0.219-0.323,0.43-0.441,0.631c-0.118,0.202-0.178,0.377-0.178,0.527h4.198v1.04h-5.527
	c-0.009-0.053-0.013-0.105-0.013-0.158s0-0.101,0-0.145c0-0.413,0.067-0.796,0.204-1.151c0.136-0.355,0.313-0.691,0.532-1.007
	c0.22-0.316,0.466-0.614,0.737-0.895c0.272-0.281,0.54-0.553,0.803-0.815c0.22-0.211,0.428-0.419,0.625-0.625
	s0.373-0.413,0.526-0.619c0.153-0.206,0.276-0.419,0.368-0.638c0.093-0.219,0.139-0.452,0.139-0.697
	c0-0.263-0.042-0.487-0.125-0.671c-0.084-0.184-0.195-0.337-0.336-0.46c-0.14-0.123-0.305-0.213-0.493-0.27
	c-0.188-0.057-0.388-0.085-0.599-0.085c-0.255,0-0.487,0.035-0.697,0.105c-0.211,0.07-0.399,0.151-0.566,0.244
	c-0.166,0.092-0.307,0.188-0.421,0.29c-0.114,0.101-0.202,0.177-0.263,0.23l-0.605-0.868c0.078-0.088,0.197-0.195,0.354-0.322
	c0.158-0.128,0.347-0.248,0.566-0.362c0.22-0.114,0.465-0.21,0.736-0.289c0.272-0.079,0.566-0.119,0.882-0.119
	c0.957,0,1.674,0.221,2.152,0.665C236.113,35.57,236.352,36.195,236.352,37.002z M228.258,39.227c0-0.5-0.028-0.974-0.085-1.421
	c-0.057-0.447-0.153-0.838-0.289-1.171c-0.137-0.333-0.318-0.599-0.547-0.796c-0.228-0.197-0.509-0.296-0.842-0.296
	c-0.334,0-0.614,0.099-0.843,0.296c-0.228,0.198-0.41,0.463-0.546,0.796c-0.136,0.333-0.232,0.724-0.289,1.171
	c-0.058,0.448-0.086,0.921-0.086,1.421s0.028,0.974,0.086,1.421c0.057,0.448,0.153,0.838,0.289,1.171s0.318,0.599,0.546,0.796
	c0.229,0.197,0.509,0.296,0.843,0.296c0.333,0,0.614-0.099,0.842-0.296c0.229-0.198,0.41-0.463,0.547-0.796
	c0.136-0.333,0.232-0.724,0.289-1.171C228.23,40.2,228.258,39.727,228.258,39.227z M223.443,39.227c0-1.526,0.27-2.702,0.81-3.527
	c0.539-0.825,1.287-1.237,2.243-1.237s1.704,0.412,2.244,1.237c0.539,0.825,0.809,2,0.809,3.527s-0.27,2.702-0.809,3.527
	c-0.54,0.824-1.288,1.237-2.244,1.237s-1.704-0.413-2.243-1.237C223.712,41.929,223.443,40.753,223.443,39.227z M221.508,37.002
	c0,0.316-0.063,0.621-0.191,0.915c-0.127,0.294-0.296,0.583-0.506,0.869c-0.211,0.285-0.448,0.565-0.711,0.842
	c-0.264,0.276-0.526,0.546-0.79,0.809c-0.148,0.149-0.322,0.325-0.52,0.526c-0.197,0.202-0.384,0.413-0.56,0.632
	c-0.175,0.219-0.322,0.43-0.44,0.631c-0.118,0.202-0.178,0.377-0.178,0.527h4.198v1.04h-5.527c-0.009-0.053-0.014-0.105-0.014-0.158
	s0-0.101,0-0.145c0-0.413,0.068-0.796,0.205-1.151c0.136-0.355,0.313-0.691,0.532-1.007s0.465-0.614,0.737-0.895
	c0.271-0.281,0.539-0.553,0.803-0.815c0.219-0.211,0.428-0.419,0.625-0.625s0.373-0.413,0.526-0.619
	c0.153-0.206,0.276-0.419,0.368-0.638c0.093-0.219,0.139-0.452,0.139-0.697c0-0.263-0.042-0.487-0.125-0.671
	c-0.084-0.184-0.195-0.337-0.336-0.46c-0.141-0.123-0.305-0.213-0.493-0.27c-0.189-0.057-0.389-0.085-0.599-0.085
	c-0.255,0-0.487,0.035-0.698,0.105c-0.21,0.07-0.399,0.151-0.565,0.244c-0.167,0.092-0.307,0.188-0.421,0.29
	c-0.114,0.101-0.202,0.177-0.264,0.23l-0.605-0.868c0.079-0.088,0.198-0.195,0.355-0.322c0.158-0.128,0.347-0.248,0.566-0.362
	c0.219-0.114,0.465-0.21,0.736-0.289c0.272-0.079,0.565-0.119,0.882-0.119c0.956,0,1.674,0.221,2.151,0.665
	C221.269,35.57,221.508,36.195,221.508,37.002z M208.73,39.279h3.251v1.146h-3.251V39.279z M204.072,37.002
	c0,0.316-0.063,0.621-0.191,0.915c-0.127,0.294-0.296,0.583-0.506,0.869c-0.211,0.285-0.447,0.565-0.711,0.842
	c-0.264,0.276-0.526,0.546-0.79,0.809c-0.148,0.149-0.322,0.325-0.52,0.526c-0.197,0.202-0.384,0.413-0.56,0.632
	c-0.175,0.219-0.322,0.43-0.44,0.631c-0.118,0.202-0.178,0.377-0.178,0.527h4.198v1.04h-5.527c-0.009-0.053-0.013-0.105-0.013-0.158
	s0-0.101,0-0.145c0-0.413,0.067-0.796,0.204-1.151c0.136-0.355,0.313-0.691,0.532-1.007c0.22-0.316,0.465-0.614,0.737-0.895
	s0.539-0.553,0.803-0.815c0.22-0.211,0.428-0.419,0.625-0.625s0.373-0.413,0.526-0.619c0.153-0.206,0.276-0.419,0.368-0.638
	c0.093-0.219,0.139-0.452,0.139-0.697c0-0.263-0.042-0.487-0.125-0.671c-0.084-0.184-0.195-0.337-0.336-0.46
	c-0.141-0.123-0.305-0.213-0.493-0.27c-0.188-0.057-0.389-0.085-0.599-0.085c-0.255,0-0.487,0.035-0.697,0.105
	c-0.211,0.07-0.399,0.151-0.566,0.244s-0.308,0.188-0.421,0.29c-0.114,0.101-0.202,0.177-0.264,0.23l-0.605-0.868
	c0.079-0.088,0.198-0.195,0.355-0.322c0.158-0.128,0.347-0.248,0.566-0.362c0.219-0.114,0.465-0.21,0.736-0.289
	c0.272-0.079,0.566-0.119,0.882-0.119c0.956,0,1.674,0.221,2.151,0.665C203.833,35.57,204.072,36.195,204.072,37.002z
	 M194.15,39.227c0.307,0,0.596-0.029,0.868-0.085c0.271-0.057,0.535-0.143,0.789-0.257c0.009-0.097,0.014-0.191,0.014-0.283
	c0-0.092,0-0.186,0-0.283c0-0.377-0.026-0.739-0.079-1.085s-0.146-0.649-0.283-0.908c-0.136-0.259-0.317-0.465-0.546-0.619
	c-0.229-0.153-0.518-0.23-0.868-0.23c-0.29,0-0.535,0.062-0.737,0.184s-0.368,0.279-0.5,0.467s-0.226,0.395-0.283,0.619
	c-0.057,0.224-0.086,0.44-0.086,0.651c0,0.596,0.144,1.05,0.429,1.362C193.151,39.071,193.58,39.227,194.15,39.227z M197.097,38.318
	c0,1.807-0.45,3.174-1.349,4.099c-0.899,0.926-2.235,1.393-4.008,1.402l-0.039-1.027c0.553,0,1.051-0.052,1.493-0.158
	c0.443-0.105,0.832-0.274,1.165-0.507c0.333-0.232,0.612-0.533,0.836-0.901s0.388-0.82,0.493-1.355
	c-0.228,0.105-0.487,0.191-0.776,0.257c-0.29,0.066-0.588,0.099-0.895,0.099c-0.518,0-0.957-0.077-1.316-0.23
	c-0.359-0.153-0.653-0.359-0.882-0.618c-0.228-0.259-0.393-0.557-0.493-0.895c-0.101-0.337-0.151-0.691-0.151-1.059
	c0-0.325,0.058-0.663,0.171-1.014c0.114-0.351,0.287-0.671,0.52-0.96c0.233-0.29,0.529-0.526,0.889-0.71s0.785-0.276,1.276-0.276
	c0.5,0,0.941,0.088,1.322,0.263c0.382,0.175,0.702,0.43,0.961,0.763c0.259,0.333,0.454,0.739,0.586,1.217
	S197.097,37.722,197.097,38.318z M186.727,39.227c0.308,0,0.597-0.029,0.869-0.085c0.271-0.057,0.535-0.143,0.789-0.257
	c0.009-0.097,0.014-0.191,0.014-0.283c0-0.092,0-0.186,0-0.283c0-0.377-0.026-0.739-0.079-1.085s-0.147-0.649-0.283-0.908
	s-0.317-0.465-0.546-0.619c-0.229-0.153-0.518-0.23-0.869-0.23c-0.289,0-0.535,0.062-0.736,0.184
	c-0.202,0.123-0.368,0.279-0.5,0.467s-0.227,0.395-0.283,0.619c-0.057,0.224-0.085,0.44-0.085,0.651c0,0.596,0.142,1.05,0.428,1.362
	C185.73,39.071,186.157,39.227,186.727,39.227z M189.675,38.318c0,1.807-0.45,3.174-1.349,4.099
	c-0.899,0.926-2.235,1.393-4.008,1.402l-0.039-1.027c0.553,0,1.051-0.052,1.493-0.158c0.443-0.105,0.831-0.274,1.165-0.507
	c0.333-0.232,0.612-0.533,0.836-0.901s0.388-0.82,0.493-1.355c-0.229,0.105-0.487,0.191-0.776,0.257
	c-0.29,0.066-0.588,0.099-0.895,0.099c-0.518,0-0.957-0.077-1.316-0.23c-0.359-0.153-0.653-0.359-0.882-0.618
	c-0.228-0.259-0.393-0.557-0.493-0.895c-0.102-0.337-0.151-0.691-0.151-1.059c0-0.325,0.057-0.663,0.171-1.014
	c0.114-0.351,0.287-0.671,0.52-0.96s0.529-0.526,0.889-0.71s0.785-0.276,1.276-0.276c0.5,0,0.941,0.088,1.322,0.263
	c0.382,0.175,0.702,0.43,0.961,0.763c0.259,0.333,0.454,0.739,0.586,1.217C189.609,37.185,189.675,37.722,189.675,38.318z
	 M176.884,36.555c0.5-0.193,0.986-0.441,1.461-0.744c0.474-0.303,0.907-0.682,1.303-1.138h0.868v9.12h-1.224v-7.422
	c-0.105,0.097-0.234,0.198-0.389,0.303c-0.153,0.105-0.32,0.206-0.5,0.302c-0.18,0.097-0.368,0.188-0.565,0.276
	s-0.389,0.163-0.573,0.224L176.884,36.555z"/>
</svg>
