<svg id="logo_final" data-name="logo final" xmlns="http://www.w3.org/2000/svg" viewBox="0 0 2192.16 485.88"><defs><style>.cls-1{fill:#064783;}</style></defs><path class="cls-1" d="M268.8,1002.89,92.56,1017.82v157.72c0,97.32,52.89,233.12,176.24,310.56,123.34-77.44,175.39-213.24,175.39-311.38v-156.9Zm158.05,176.25c0,89.29-46.91,212.83-158.1,283.29-111.18-70.46-158.85-194-158.85-282.54V1036.4l158.85-13.58,158.1,13.58Z" transform="translate(-92.56 -1000.22)"/><path class="cls-1" d="M125.48,1181.59a275.54,275.54,0,0,0,8.25,64.87c35.9,28.44,85.34,54.4,153.4,73.33a440.48,440.48,0,0,0,9.26-53.88s-92.12-10-170.91-86.05Z" transform="translate(-92.56 -1000.22)"/><path class="cls-1" d="M164.54,1325.61c27.65,17.57,61.75,36.16,103.79,55.55a390.31,390.31,0,0,0,16.07-50.67s-78.78-19.45-146.77-69.67A330.11,330.11,0,0,0,164.54,1325.61Z" transform="translate(-92.56 -1000.22)"/><path class="cls-1" d="M250.22,1425.39c4.93-10.87,10.17-23.16,14-34a706.34,706.34,0,0,1-88.82-47.5A307.77,307.77,0,0,0,250.22,1425.39Z" transform="translate(-92.56 -1000.22)"/><path class="cls-1" d="M332.89,1338.53c9,5,15.15,12.71,19.15,19.35A324.52,324.52,0,0,0,380,1310.15c-26.73-32.11-58.77-41-72.72-43.4-2.71,40.34-16.08,94-47.28,165.29q4.29,3,8.73,5.81a294.44,294.44,0,0,0,43.88-34.32A444.66,444.66,0,0,0,332.89,1338.53Z" transform="translate(-92.56 -1000.22)"/><path class="cls-1" d="M336.63,1050.6c-59.46-18.85-174.16-.54-159.41,44.37,0,0-50,14.26-22.64,71.42,13-21.48,59.67-28.66,86.51-21.49,16.94,4.53,67.81,24,66.65,110.12,32,4.37,62.28,23.84,77.51,43.52,17-40.2,25.52-82.35,25.52-117.35v-89.91C391.76,1076.09,367.52,1061.93,336.63,1050.6Zm-119.91,45c-12-1.84-14.94-3.49-14.94-3.49s.34-11.43,29.32-8.73C231.1,1083.37,228.72,1097.43,216.72,1095.59Z" transform="translate(-92.56 -1000.22)"/><path class="cls-1" d="M502.87,1022.54c0,12.46-9.57,22.46-21.82,22.46a22.39,22.39,0,0,1,0-44.78C493.3,1000.22,502.87,1010.22,502.87,1022.54Zm-40.22.22c0,10.79,8,19.27,18.4,19.27,10.22,0,18.19-8.48,18.19-19.49,0-10.79-8-19.34-18.19-19.34C470.62,1003.2,462.65,1011.75,462.65,1022.76Z" transform="translate(-92.56 -1000.22)"/><path class="cls-1" d="M487.81,1035.84l-5.84-10h-6.14v10h-3.46v-26h10.41a7.84,7.84,0,0,1,5.74,2.36,7.94,7.94,0,0,1,.87,10.33,8.16,8.16,0,0,1-3.89,2.94l6.15,10.41Zm-12-22.81v9.71h6.95a4.38,4.38,0,0,0,3.3-1.43,4.79,4.79,0,0,0,1.36-3.44,4.73,4.73,0,0,0-1.36-3.42,4.37,4.37,0,0,0-3.3-1.42Z" transform="translate(-92.56 -1000.22)"/><path class="cls-1" d="M583,1214.29H652.1v30.9H550.74V1081.32H650.93v30.9H583v34.88h62v30.44H583Z" transform="translate(-92.56 -1000.22)"/><path class="cls-1" d="M799.59,1245.19H762.83L731,1191.74l-31.83,53.45H662.64l50.09-84.1-47.51-79.77h36.52L731,1130.38l29.23-49.06h36.52L749.31,1161Z" transform="translate(-92.56 -1000.22)"/><path class="cls-1" d="M878.71,1081.32q23.64,0,39.8,15.92t16.15,39.09q0,23.18-16.15,39.1t-39.8,15.92H849.92v53.84H817.61V1081.32Zm0,79.83A22.59,22.59,0,0,0,895.8,1154a24.66,24.66,0,0,0,6.79-17.68q0-10.75-6.79-17.79a22.78,22.78,0,0,0-17.09-7H849.92v49.63Z" transform="translate(-92.56 -1000.22)"/><path class="cls-1" d="M1045.63,1245.19l-33.13-56.89H988v56.89H955.73V1081.32h65.55a54.35,54.35,0,0,1,54.55,54.31,49.81,49.81,0,0,1-8.67,28.21,54.16,54.16,0,0,1-22.93,19.54l36.28,61.81ZM988,1111.52V1160h33.24a20.55,20.55,0,0,0,15.68-7.14,24.56,24.56,0,0,0,6.56-17.21,24.13,24.13,0,0,0-6.56-17.09,20.71,20.71,0,0,0-15.68-7Z" transform="translate(-92.56 -1000.22)"/><path class="cls-1" d="M1131.77,1214.29h69.07v30.9H1099.47V1081.32h100.2v30.9h-67.9v34.88h62v30.44h-62Z" transform="translate(-92.56 -1000.22)"/><path class="cls-1" d="M1279.49,1248.47q-24.35,0-41-10.89a58.17,58.17,0,0,1-23.41-29.61l27.62-16.16q9.6,25.07,37.69,25,13.58,0,19.9-4.91a15.11,15.11,0,0,0,6.32-12.41q0-8.65-7.73-13.46t-27.62-10.42a171.16,171.16,0,0,1-18.61-6.55,80.44,80.44,0,0,1-15.22-8.78,35.89,35.89,0,0,1-11.59-13.93,45.63,45.63,0,0,1-4-19.66q0-22.24,15.8-35.47t38-13.23q19.89,0,35,9.72a65.24,65.24,0,0,1,23.52,27l-27.15,15.69q-9.84-21.07-31.37-21.07-10.08,0-15.8,4.57a14.39,14.39,0,0,0-5.74,11.82,14.89,14.89,0,0,0,6.44,12.52q6.43,4.8,24.7,10.42,7.49,2.34,11.35,3.63t10.53,4a63.72,63.72,0,0,1,10.31,5,83.58,83.58,0,0,1,8.31,6.32,32.56,32.56,0,0,1,7.14,8.2,47,47,0,0,1,6,23.17q0,22.71-16.51,36T1279.49,1248.47Z" transform="translate(-92.56 -1000.22)"/><path class="cls-1" d="M1411.06,1248.47q-24.35,0-41-10.89a58.27,58.27,0,0,1-23.41-29.61l27.62-16.16q9.6,25.07,37.7,25,13.57,0,19.89-4.91a15.09,15.09,0,0,0,6.33-12.41q0-8.65-7.73-13.46t-27.62-10.42a171.41,171.41,0,0,1-18.62-6.55,80.37,80.37,0,0,1-15.21-8.78,35.72,35.72,0,0,1-11.59-13.93,45.49,45.49,0,0,1-4-19.66q0-22.24,15.8-35.47t38-13.23q19.9,0,35,9.72a65.27,65.27,0,0,1,23.53,27l-27.16,15.69q-9.83-21.07-31.37-21.07-10.07,0-15.8,4.57a14.41,14.41,0,0,0-5.73,11.82,14.91,14.91,0,0,0,6.43,12.52q6.43,4.8,24.7,10.42,7.48,2.34,11.36,3.63t10.53,4a63.14,63.14,0,0,1,10.3,5,81.32,81.32,0,0,1,8.31,6.32,32.56,32.56,0,0,1,7.14,8.2,47,47,0,0,1,6,23.17q0,22.71-16.5,36T1411.06,1248.47Z" transform="translate(-92.56 -1000.22)"/><path class="cls-1" d="M1657.82,1245.19l-10.42-29.5h-67.31l-9.83,29.5h-34.89l57.36-163.87h40l57.82,163.87Zm-67.21-59.7h46.12l-23.64-67Z" transform="translate(-92.56 -1000.22)"/><path class="cls-1" d="M1738.8,1214.29h62.51v30.9h-94.82V1081.32h32.31Z" transform="translate(-92.56 -1000.22)"/><path class="cls-1" d="M1932,1245.19l-10.42-29.5h-67.31l-9.83,29.5H1809.5l57.36-163.87h40l57.81,163.87Zm-67.21-59.7h46.12l-23.65-67Z" transform="translate(-92.56 -1000.22)"/><path class="cls-1" d="M2070.52,1245.19l-33.13-56.89h-24.46v56.89h-32.31V1081.32h65.55a54.35,54.35,0,0,1,54.55,54.31,49.87,49.87,0,0,1-8.66,28.21,54.24,54.24,0,0,1-22.94,19.54l36.28,61.81Zm-57.59-133.67V1160h33.24a20.57,20.57,0,0,0,15.69-7.14,24.59,24.59,0,0,0,6.55-17.21,24.17,24.17,0,0,0-6.55-17.09,20.73,20.73,0,0,0-15.69-7Z" transform="translate(-92.56 -1000.22)"/><path class="cls-1" d="M2284.72,1081.32v163.87h-32.07V1138.91l-46.21,76-3.77.13-46-75.75v105.88h-32.31V1081.32h33.24l47,77.38,46.75-77.38Z" transform="translate(-92.56 -1000.22)"/><path class="cls-1" d="M595.35,1418.45q-23.37,0-38.66-15.44t-15.29-37.78q0-22.34,15.29-37.77T595.35,1312a51.6,51.6,0,0,1,26.16,6.84,47.84,47.84,0,0,1,18.38,18.45l-9.12,5.29a36.48,36.48,0,0,0-14.4-15,40.85,40.85,0,0,0-21-5.59q-19.26,0-31.46,12.49t-12.2,30.72q0,18.24,12.2,30.73t31.46,12.49a40.94,40.94,0,0,0,21-5.58,36.5,36.5,0,0,0,14.4-15l9.12,5.15a47.26,47.26,0,0,1-18.3,18.52A51.59,51.59,0,0,1,595.35,1418.45Z" transform="translate(-92.56 -1000.22)"/><path class="cls-1" d="M677.58,1407.28h42.33v9.4H664.14v-6.47L705,1352.59h-39.4v-9.4h52.86v6.42Z" transform="translate(-92.56 -1000.22)"/><path class="cls-1" d="M780.41,1341.42q16.32,0,26.39,11.54a40.15,40.15,0,0,1,10.07,27.27q0,1.62-.3,4.56H752q1.47,11.18,9.49,17.71T781.3,1409a29,29,0,0,0,14.48-3.45,23.37,23.37,0,0,0,9.18-9l8.53,5a35,35,0,0,1-13.23,12.35,39.35,39.35,0,0,1-19.11,4.56q-17.35,0-28.22-10.88t-10.88-27.64q0-16.46,10.73-27.48T780.41,1341.42Zm0,9.41q-11.46,0-19.18,6.84a27.8,27.8,0,0,0-9.19,17.71h54.83q-1.47-11.61-9-18.08A26,26,0,0,0,780.41,1350.83Z" transform="translate(-92.56 -1000.22)"/><path class="cls-1" d="M881.25,1418.45q-16.62,0-27.63-11.1t-11-27.42q0-16.31,11-27.41t27.63-11.1a37.17,37.17,0,0,1,19.55,5.22,30.93,30.93,0,0,1,12.64,14l-7.93,4.55a22.91,22.91,0,0,0-9.49-10.5,28.27,28.27,0,0,0-14.77-3.9,27.87,27.87,0,0,0-20.58,8.45,29.65,29.65,0,0,0,0,41.31,28.55,28.55,0,0,0,45.42-5.95l8.09,4.7a34,34,0,0,1-13.38,14A38.1,38.1,0,0,1,881.25,1418.45Z" transform="translate(-92.56 -1000.22)"/><path class="cls-1" d="M977.24,1341.42q13.37,0,21.09,8.16t7.72,22v45.12h-9.71v-45.12q0-9.86-5.21-15.29t-14.78-5.44q-10.58,0-17.19,6.69t-6.62,20.65v38.51h-9.7V1313.79h9.7v40.86Q960.78,1341.42,977.24,1341.42Z" transform="translate(-92.56 -1000.22)"/><path class="cls-1" d="M1098.65,1362.25a8.89,8.89,0,0,0,4.47,7.81,40.13,40.13,0,0,0,10.8,4.69l12.63,3.61a22.71,22.71,0,0,1,10.67,6.54q4.35,4.72,4.36,12.38a18.61,18.61,0,0,1-7.43,15.29q-7.43,5.88-19.18,5.88-10.58,0-18-4.71a25.11,25.11,0,0,1-10.36-12.2l8.23-4.85a17.19,17.19,0,0,0,7.43,9A23.67,23.67,0,0,0,1115,1409a23.34,23.34,0,0,0,12-2.86,9.6,9.6,0,0,0,4.86-8.89,9.1,9.1,0,0,0-4.42-7.93,38.07,38.07,0,0,0-10.73-4.74l-12.64-3.61a23.47,23.47,0,0,1-10.73-6.44q-4.41-4.63-4.41-12.13a18.87,18.87,0,0,1,7.13-15q7.13-6,18-6a30.14,30.14,0,0,1,15.73,4,24.81,24.81,0,0,1,10,11l-8.08,4.7q-4.26-10.29-17.64-10.29a19.58,19.58,0,0,0-10.88,3A9.52,9.52,0,0,0,1098.65,1362.25Z" transform="translate(-92.56 -1000.22)"/><path class="cls-1" d="M1183.32,1415.8a8.16,8.16,0,1,1,2.35-5.73A7.78,7.78,0,0,1,1183.32,1415.8Z" transform="translate(-92.56 -1000.22)"/><path class="cls-1" d="M1229.18,1355.39q6.77-13.38,23.23-13.38v9.41q-10,0-16.61,5.88t-6.62,18.52v40.86h-9.7v-73.49h9.7Z" transform="translate(-92.56 -1000.22)"/><path class="cls-1" d="M1282.4,1415.8a8.16,8.16,0,1,1,2.35-5.73A7.8,7.8,0,0,1,1282.4,1415.8Z" transform="translate(-92.56 -1000.22)"/><path class="cls-1" d="M1374.34,1407.35a39.41,39.41,0,0,1-54.83,0q-11.23-11.1-11.24-27.42t11.24-27.41a39.41,39.41,0,0,1,54.83,0q11.25,11.1,11.25,27.41T1374.34,1407.35Zm-48-6.76a29.29,29.29,0,0,0,41.16,0,29.65,29.65,0,0,0,0-41.31,29.29,29.29,0,0,0-41.16,0,29.65,29.65,0,0,0,0,41.31Z" transform="translate(-92.56 -1000.22)"/><path class="cls-1" d="M1422.92,1415.8a8.16,8.16,0,1,1,2.35-5.73A7.78,7.78,0,0,1,1422.92,1415.8Z" transform="translate(-92.56 -1000.22)"/></svg>