<svg xmlns="http://www.w3.org/2000/svg" viewBox="0 0 573.396 211.483"><path fill="#575756" d="M79.4 25.647L45.058 86.531c-.896 1.579-1.904 1.42-2.275-.357-4.196-20.229-9.802-40.182-15.189-60.216-.459-1.716-1.758-3.176-4.141-3.176H7.57c-1.813 0-2.907 1.423-2.435 3.174l20.762 77.04c.472 1.758 2.327 3.178 4.144 3.178h21.81c1.82 0 4.027-1.273 4.938-2.846l44.482-77.035c1.022-1.769.156-3.511-2.139-3.511H83.261c-1.82 0-2.972 1.283-3.861 2.865zM377.688 26.023l-6.348 37.163a620.245 620.245 0 00-2.959 19.134c-.12.869-1.51 1.445-2.103.156-3.018-6.553-6.602-12.822-9.29-17.764l-21.843-39.059c-.886-1.585-3.079-2.869-4.896-2.869l-25.941-.002c-1.816 0-3.535 1.45-3.841 3.241l-13.145 76.912c-.31 1.787.918 3.239 2.734 3.239h14.287c1.816 0 3.538-1.449 3.845-3.239l7.92-46.351c.781-4.552 1.878-10.849 2.809-16.603.199-1.24 1.628-1.312 2.123-.264 2.894 6.126 6.432 12.861 9.173 17.813l24.896 45.758c.866 1.592 3.047 2.885 4.86 2.885h21.599c1.819 0 3.538-1.449 3.844-3.239l13.148-76.912c.306-1.791-.922-3.239-2.741-3.239h-14.28c-1.823.001-3.545 1.449-3.851 3.24zM481.734 22.784h-60.117c-1.816 0-3.549 1.448-3.864 3.235l-13.584 76.918c-.315 1.787.901 3.236 2.722 3.236h69.964c2.19 0 3.474-1.016 3.86-3.236l1.062-6.012c.315-1.784-.898-3.236-2.718-3.236h-48.402c-2.246 0-3.164-.745-2.718-3.238l3.018-17.087c.313-1.784 2.044-3.232 3.86-3.232h44.092c2.087 0 3.48-1.055 3.861-3.235l1.061-6.013c.316-1.787-.901-3.235-2.718-3.235h-44.089c-2.422 0-3.128-.941-2.721-3.236l2.825-16.022c.319-1.789 2.048-3.237 3.867-3.237h70.117c1.819 0 3.037 1.448 2.722 3.237l-11.4 64.548c-.313 1.787.905 3.236 2.722 3.236h14.983c1.813 0 3.549-1.449 3.864-3.236l11.396-64.548c.397-2.246 1.351-3.237 3.864-3.237h27.734c1.953 0 3.453-.897 3.863-3.237l1.045-5.896c.313-1.787-.904-3.235-2.718-3.235h-87.453zM206.825 22.782c-1.816 0-3.548 1.45-3.86 3.237l-6.914 39.024c-.417 2.373.338 3.372 1.109 4.71l13.105 22.66c.573.996 2.377.928 2.656-.658l9.401-53.249c.315-1.789 2.044-3.236 3.86-3.236h27.393c7.126 0 10.974 7.373 8.525 15.361-2.656 8.647-13.274 11.411-23.05 11.411h-8.25c-1.819 0-3.525 1.455-3.812 3.248l-.798 4.98c-.286 1.797.261 4.499 1.221 6.042l16.826 27.067c1.374 2.21 2.52 2.793 5.026 2.793h18.73c1.48 0 2.086-1.758 1.432-2.712l-18.597-27.106c-1.282-1.868-1.53-2.679 1.419-2.991 18.852-1.992 27.888-9.919 30.668-22.872 3.772-17.573.977-27.71-21.387-27.71h-54.703zM141.851 34.939l14.701 25.42c1.185 2.051 1.868 2.846 4.938 2.846h14.785c1.82 0 2.555-1.276 1.647-2.846l-33.327-57.63c-2.181-3.77-6.751-3.505-8.779 0L119.11 31.612c-1.442 2.493-1.279 3.475 0 5.695l7.396 12.788c.912 1.572 2.383 1.572 3.291 0l8.763-15.156c.905-1.574 2.379-1.574 3.291 0z"/><path fill="#7DB928" d="M109.035 85.002l14.701-25.424c1.185-2.051 1.533-3.037 0-5.69l-7.396-12.787c-.908-1.572-2.383-1.572-3.291 0L79.726 98.732c-2.181 3.772.332 7.591 4.388 7.591h33.408c2.881.003 3.656-.625 4.938-2.845l7.396-12.787c.905-1.575.169-2.848-1.647-2.848l-17.526.003c-1.82.004-2.556-1.272-1.648-2.844z"/><path fill="#0075BF" d="M169.149 87.847h-29.401c-2.373 0-3.401.192-4.935 2.849l-7.396 12.783c-.908 1.572-.169 2.848 1.647 2.845h66.65c4.362 0 6.42-4.085 4.392-7.591l-16.702-28.884c-1.442-2.493-2.373-2.849-4.941-2.849h-14.786c-1.82.004-2.559 1.276-1.647 2.846l8.766 15.152c.909 1.572.173 2.849-1.647 2.849z"/><path fill="#575756" stroke="#585758" stroke-width="3" stroke-miterlimit="10" d="M3.75 138.695H570"/><g fill="#585758"><path d="M15.505 201.813H4.203v-29.051h10.935c5.059 0 8.568 2.896 8.568 7.752 0 3.061-1.836 5.468-4.284 6.365 2.774 1.021 4.733 3.428 4.733 6.896 0 5.264-3.509 8.038-8.65 8.038zm-.612-26.276H7.304v10.078h7.589c3.224 0 5.712-1.592 5.712-5.06s-2.489-5.018-5.712-5.018zm.326 12.853H7.304v10.649h7.916c3.59 0 5.834-2.081 5.834-5.345s-2.244-5.304-5.835-5.304zM31.457 201.813v-29.051h18.035v2.774H34.558v10.241h12.73v2.774h-12.73v10.486h14.934v2.774H31.457zM54.06 201.813v-2.938l14.525-23.339H54.631v-2.774h17.463v2.611l-14.648 23.665h14.648v2.774H54.06zM89.434 189.858h-7.711v11.955h-3.101v-29.051h10.813c5.304 0 8.977 3.305 8.977 8.527s-3.674 8.569-8.978 8.569zm-.286-14.321h-7.426v11.547h7.426c3.631 0 6.161-1.959 6.161-5.794s-2.53-5.753-6.161-5.753zM104.325 201.813v-29.051h18.035v2.774h-14.934v10.241h12.73v2.774h-12.73v10.486h14.934v2.774h-18.035zM137.862 202.059c-2.856 0-5.468-1.062-7.426-3.02-2.733-2.733-2.733-5.59-2.733-11.751s0-9.018 2.733-11.751c1.958-1.959 4.57-3.02 7.426-3.02 5.223 0 9.099 3.183 10.078 8.65h-3.183c-.775-3.55-3.264-5.876-6.896-5.876-1.918 0-3.754.734-5.019 2.04-1.836 1.877-2.041 3.876-2.041 9.956 0 6.079.204 8.079 2.041 9.956 1.265 1.305 3.101 2.04 5.019 2.04 3.631 0 6.202-2.326 6.977-5.876h3.101c-.937 5.469-4.895 8.652-10.077 8.652zm1.102-32.112h-2.774l-5.101-6.243h2.815l3.672 4.284 3.672-4.284h2.815l-5.099 6.243zM173.317 201.813l-15.423-23.298v23.298h-3.101v-29.051h2.938l15.423 23.216v-23.216h3.101v29.051h-2.938zM201.143 199.039c-1.958 1.958-4.529 3.02-7.426 3.02s-5.468-1.062-7.426-3.02c-2.733-2.733-2.733-5.59-2.733-11.751s0-9.018 2.733-11.751c1.958-1.959 4.529-3.02 7.426-3.02s5.467 1.061 7.426 3.02c2.734 2.733 2.734 5.59 2.734 11.751s-.001 9.018-2.734 11.751zm-2.408-21.666c-1.265-1.306-3.101-2.081-5.019-2.081-1.918 0-3.754.775-5.019 2.081-1.836 1.877-2.041 3.835-2.041 9.915 0 6.079.204 8.038 2.041 9.915 1.265 1.306 3.101 2.081 5.019 2.081 1.917 0 3.754-.775 5.019-2.081 1.836-1.877 2.04-3.836 2.04-9.915 0-6.08-.204-8.038-2.04-9.915zM218.645 202.059c-4.366 0-7.222-1.102-9.956-3.836l2.122-2.121c2.407 2.407 4.651 3.183 7.916 3.183 4.244 0 6.855-2 6.855-5.387 0-1.509-.449-2.814-1.388-3.631s-1.673-1.061-3.794-1.388l-3.387-.53c-2.285-.367-4.08-1.102-5.345-2.203-1.469-1.306-2.204-3.101-2.204-5.427 0-4.937 3.55-8.201 9.303-8.201 3.713 0 6.161.938 8.65 3.183l-2 1.999c-1.795-1.632-3.713-2.488-6.773-2.488-3.876 0-6.12 2.162-6.12 5.386 0 1.428.408 2.57 1.306 3.346.897.775 2.407 1.347 3.917 1.591l3.182.49c2.734.407 4.081.979 5.304 2.04 1.591 1.347 2.448 3.346 2.448 5.753.001 5.099-3.997 8.241-10.036 8.241zM243.696 175.537v26.276h-3.101v-26.276h-8.405v-2.774h19.911v2.774h-8.405zM276.05 201.813l-15.423-23.298v23.298h-3.101v-29.051h2.938l15.423 23.216v-23.216h3.101v29.051h-2.938zM290.084 169.947h-2.693l3.591-6.243h3.508l-4.406 6.243zm-2.693 31.866v-29.051h3.101v29.051h-3.101zM317.584 175.537v26.276h-3.102v-26.276h-8.404v-2.774h19.912v2.774h-8.406zM331.414 201.813v-29.051h18.035v2.774h-14.934v10.241h12.73v2.774h-12.73v10.486h14.934v2.774h-18.035zM364.953 202.059c-2.857 0-5.469-1.062-7.426-3.02-2.734-2.733-2.734-5.59-2.734-11.751s0-9.018 2.734-11.751c1.957-1.959 4.568-3.02 7.426-3.02 5.223 0 9.098 3.183 10.078 8.65h-3.184c-.775-3.55-3.264-5.876-6.895-5.876-1.918 0-3.754.734-5.02 2.04-1.836 1.877-2.039 3.876-2.039 9.956 0 6.079.203 8.079 2.039 9.956 1.266 1.305 3.102 2.04 5.02 2.04 3.631 0 6.201-2.326 6.977-5.876h3.102c-.939 5.469-4.896 8.652-10.078 8.652zM398.775 201.813v-13.261h-13.791v13.261h-3.102v-29.051h3.102v13.016h13.791v-13.016h3.102v29.051h-3.102zM428.805 201.813l-15.424-23.298v23.298h-3.102v-29.051h2.939l15.422 23.216v-23.216h3.102v29.051h-2.937zM456.629 199.039c-1.957 1.958-4.529 3.02-7.426 3.02s-5.467-1.062-7.426-3.02c-2.734-2.733-2.734-5.59-2.734-11.751s0-9.018 2.734-11.751c1.959-1.959 4.529-3.02 7.426-3.02s5.469 1.061 7.426 3.02c2.734 2.733 2.734 5.59 2.734 11.751s0 9.018-2.734 11.751zm-2.406-21.666c-1.266-1.306-3.102-2.081-5.02-2.081s-3.754.775-5.018 2.081c-1.836 1.877-2.041 3.835-2.041 9.915 0 6.079.205 8.038 2.041 9.915 1.264 1.306 3.1 2.081 5.018 2.081s3.754-.775 5.02-2.081c1.836-1.877 2.039-3.836 2.039-9.915 0-6.08-.203-8.038-2.039-9.915zM466.664 201.813v-29.051h3.102v26.276h14.852v2.774h-17.954zM505.059 199.039c-1.959 1.958-4.529 3.02-7.426 3.02-2.898 0-5.469-1.062-7.426-3.02-2.734-2.733-2.734-5.59-2.734-11.751s0-9.018 2.734-11.751c1.957-1.959 4.527-3.02 7.426-3.02 2.896 0 5.467 1.061 7.426 3.02 2.732 2.733 2.732 5.59 2.732 11.751s0 9.018-2.732 11.751zm-2.409-21.666c-1.264-1.306-3.1-2.081-5.018-2.081s-3.754.775-5.02 2.081c-1.836 1.877-2.039 3.835-2.039 9.915 0 6.079.203 8.038 2.039 9.915 1.266 1.306 3.102 2.081 5.02 2.081s3.754-.775 5.018-2.081c1.836-1.877 2.041-3.836 2.041-9.915 0-6.08-.205-8.038-2.041-9.915zM531.904 198.713c-2.041 2.203-4.773 3.346-7.752 3.346-2.857 0-5.469-1.062-7.426-3.02-2.734-2.733-2.734-5.59-2.734-11.751s0-9.018 2.734-11.751c1.957-1.959 4.527-3.02 7.426-3.02 5.549 0 9.303 3.591 10.158 8.69h-3.1c-.816-3.672-3.428-5.916-7.059-5.916-1.918 0-3.754.775-5.02 2.081-1.836 1.877-2.039 3.835-2.039 9.915 0 6.079.203 8.079 2.039 9.956 1.266 1.305 3.102 2.04 5.02 2.04 2.121 0 4.162-.857 5.508-2.489 1.184-1.428 1.633-3.02 1.633-5.264v-2.203h-7.141v-2.733h10.24v4.61c.002 3.347-.692 5.591-2.487 7.509zM541.613 201.813v-29.051h3.102v29.051h-3.102zM553.119 201.813v-29.051h18.035v2.774H556.22v10.241h12.73v2.774h-12.73v10.486h14.934v2.774h-18.035z"/></g></svg>