<?xml version="1.0" encoding="utf-8"?>
<!-- Generator: Adobe Illustrator 18.0.0, SVG Export Plug-In . SVG Version: 6.00 Build 0)  -->
<!DOCTYPE svg PUBLIC "-//W3C//DTD SVG 1.1//EN" "http://www.w3.org/Graphics/SVG/1.1/DTD/svg11.dtd">
<svg version="1.1" id="Vrstva_1" xmlns="http://www.w3.org/2000/svg" xmlns:xlink="http://www.w3.org/1999/xlink" x="0px" y="0px"
	 viewBox="0 0 174.9 44" width="175" height="44" enable-background="new 0 0 174.9 44" xml:space="preserve">
<g>
	<g>
		<path d="M62.3,43.4c-0.8-1.7-1.6-3.5-2.5-5.4c-0.8-1.9-1.6-3.7-2.3-5.5c-0.7-1.8-1.4-3.6-2-5.2s-1.1-3.2-1.6-4.5h5.2
			c0.4,1.2,0.8,2.5,1.3,3.9c0.5,1.4,1,2.7,1.5,4.1c0.5,1.4,1,2.7,1.4,3.9c0.5,1.3,0.9,2.3,1.3,3.2c0.4-0.9,0.8-2,1.3-3.2
			c0.5-1.3,0.9-2.6,1.4-3.9c0.5-1.4,1-2.7,1.5-4.1c0.5-1.4,0.9-2.7,1.3-3.9h5c-0.5,1.3-1,2.8-1.6,4.5s-1.3,3.4-2,5.2
			c-0.7,1.8-1.5,3.7-2.3,5.5c-0.8,1.9-1.6,3.7-2.4,5.4H62.3z"/>
		<path d="M77.8,22.8h4.7v20.6h-4.7V22.8z"/>
		<path d="M101.3,43.4c-0.2-0.7-0.5-1.5-0.7-2.2c-0.3-0.8-0.5-1.5-0.8-2.3h-8.1c-0.3,0.8-0.5,1.5-0.8,2.3c-0.3,0.8-0.5,1.5-0.7,2.2
			h-4.9c0.8-2.2,1.5-4.3,2.2-6.2c0.7-1.9,1.4-3.7,2.1-5.3c0.7-1.7,1.3-3.2,2-4.7c0.7-1.5,1.3-3,2-4.4H98c0.7,1.4,1.4,2.9,2,4.4
			c0.7,1.5,1.3,3.1,2,4.7c0.7,1.7,1.4,3.4,2.1,5.3c0.7,1.9,1.5,3.9,2.2,6.2H101.3z M95.6,27.5c-0.1,0.3-0.3,0.7-0.5,1.2
			c-0.2,0.5-0.4,1.1-0.7,1.8c-0.3,0.7-0.5,1.4-0.9,2.2c-0.3,0.8-0.6,1.7-1,2.6h6c-0.3-0.9-0.6-1.7-0.9-2.6c-0.3-0.8-0.6-1.6-0.9-2.2
			c-0.3-0.7-0.5-1.3-0.7-1.8C95.9,28.2,95.8,27.8,95.6,27.5z"/>
		<path d="M121.3,43.4c-0.4-0.7-0.9-1.4-1.5-2.2c-0.6-0.8-1.2-1.6-1.9-2.4c-0.7-0.8-1.4-1.6-2.1-2.3c-0.7-0.7-1.4-1.4-2.2-1.9v8.7
			H109V22.8h4.7v7.7c1.2-1.3,2.4-2.6,3.7-3.9c1.2-1.4,2.4-2.6,3.5-3.8h5.6c-1.4,1.7-2.8,3.3-4.3,4.8c-1.4,1.5-2.9,3.1-4.5,4.7
			c1.7,1.4,3.3,3,4.8,4.9c1.6,1.9,3,4,4.5,6.2H121.3z"/>
		<path d="M147.8,33.1c0,1.8-0.3,3.3-0.8,4.7c-0.5,1.3-1.3,2.5-2.2,3.4c-0.9,0.9-2,1.6-3.3,2c-1.3,0.5-2.6,0.7-4.1,0.7
			c-1.4,0-2.8-0.2-4-0.7c-1.3-0.5-2.4-1.1-3.3-2c-0.9-0.9-1.7-2-2.2-3.4c-0.5-1.3-0.8-2.9-0.8-4.7s0.3-3.3,0.8-4.7
			c0.6-1.3,1.3-2.5,2.3-3.4c1-0.9,2.1-1.6,3.3-2.1s2.6-0.7,4-0.7c1.4,0,2.8,0.2,4,0.7s2.4,1.1,3.3,2.1c0.9,0.9,1.7,2,2.2,3.4
			C147.5,29.8,147.8,31.3,147.8,33.1z M131.9,33.1c0,1,0.1,1.9,0.4,2.7c0.3,0.8,0.6,1.5,1.1,2.1s1,1,1.7,1.4
			c0.7,0.3,1.5,0.5,2.3,0.5c0.9,0,1.6-0.2,2.3-0.5c0.7-0.3,1.3-0.8,1.7-1.4c0.5-0.6,0.8-1.3,1.1-2.1c0.3-0.8,0.4-1.7,0.4-2.7
			s-0.1-1.9-0.4-2.8c-0.3-0.8-0.6-1.5-1.1-2.1c-0.5-0.6-1.1-1-1.7-1.4c-0.7-0.3-1.5-0.5-2.3-0.5c-0.9,0-1.7,0.2-2.3,0.5
			c-0.7,0.3-1.3,0.8-1.7,1.4c-0.5,0.6-0.8,1.3-1.1,2.1C132,31.2,131.9,32.1,131.9,33.1z"/>
		<path d="M157.2,22.8c0.4,0.7,0.8,1.5,1.3,2.4c0.5,1,1,2,1.5,3.1c0.5,1.1,1,2.3,1.5,3.4c0.5,1.2,1,2.3,1.4,3.3
			c0.4-1,0.9-2.1,1.4-3.3c0.5-1.2,1-2.3,1.5-3.4c0.5-1.1,1-2.2,1.5-3.1c0.5-1,0.9-1.8,1.3-2.4h4.3c0.2,1.4,0.4,2.9,0.6,4.6
			c0.2,1.7,0.3,3.5,0.5,5.3c0.1,1.8,0.3,3.7,0.4,5.5c0.1,1.8,0.2,3.6,0.3,5.2h-4.6c-0.1-2-0.1-4.2-0.2-6.5c-0.1-2.4-0.3-4.7-0.5-7.1
			c-0.4,0.8-0.8,1.8-1.2,2.8c-0.4,1-0.9,2-1.3,3s-0.9,2-1.3,2.9c-0.4,0.9-0.7,1.7-1,2.4h-3.3c-0.3-0.7-0.6-1.4-1-2.4
			c-0.4-0.9-0.8-1.9-1.3-2.9c-0.4-1-0.9-2-1.3-3c-0.4-1-0.8-1.9-1.2-2.8c-0.2,2.4-0.4,4.8-0.5,7.1c-0.1,2.4-0.2,4.5-0.2,6.5h-4.6
			c0.1-1.6,0.2-3.4,0.3-5.2c0.1-1.8,0.2-3.7,0.4-5.5c0.1-1.8,0.3-3.6,0.5-5.3c0.2-1.7,0.4-3.2,0.6-4.6H157.2z"/>
	</g>
	<g>
		<radialGradient id="SVGID_1_" cx="25.165" cy="22.0496" r="24.8237" gradientUnits="userSpaceOnUse">
			<stop  offset="0" style="stop-color:#00E6F5"/>
			<stop  offset="1" style="stop-color:#2346FA"/>
		</radialGradient>
		<path fill="url(#SVGID_1_)" d="M2.4,26.9h12c1.6,0,2.6,1.7,1.8,3.1l-5.9,10.3c-0.4,0.6-0.4,1.4,0,2.1l0,0c0.8,1.4,2.8,1.4,3.6,0
			l9.5-16.5c0.8-1.4-0.2-3.1-1.8-3.1H2.4c-1.6,0-2.6,1.7-1.8,3.1l0,0C1,26.5,1.7,26.9,2.4,26.9z"/>
		<radialGradient id="SVGID_2_" cx="25.165" cy="22.0496" r="24.8237" gradientUnits="userSpaceOnUse">
			<stop  offset="0" style="stop-color:#00E6F5"/>
			<stop  offset="1" style="stop-color:#2346FA"/>
		</radialGradient>
		<path fill="url(#SVGID_2_)" d="M39.9,40.3L34,30c-0.8-1.4,0.2-3.1,1.8-3.1h12c0.7,0,1.4-0.4,1.8-1l0,0c0.8-1.4-0.2-3.1-1.8-3.1
			H28.6c-1.6,0-2.6,1.7-1.8,3.1l9.5,16.5c0.8,1.4,2.8,1.4,3.6,0l0,0C40.3,41.8,40.3,41,39.9,40.3z"/>
		<radialGradient id="SVGID_3_" cx="25.165" cy="22.0496" r="24.8237" gradientUnits="userSpaceOnUse">
			<stop  offset="0" style="stop-color:#00E6F5"/>
			<stop  offset="1" style="stop-color:#2346FA"/>
		</radialGradient>
		<path fill="url(#SVGID_3_)" d="M32.9,1.2l-6,10.4c-0.8,1.4-2.8,1.4-3.6,0l-6-10.4c-0.4-0.6-1-1-1.8-1h0c-1.6,0-2.6,1.7-1.8,3.1
			l9.6,16.5c0.8,1.4,2.8,1.4,3.6,0l9.6-16.5c0.8-1.4-0.2-3.1-1.8-3.1h0C33.9,0.2,33.2,0.6,32.9,1.2z"/>
	</g>
</g>
</svg>
