<?xml version="1.0" encoding="UTF-8" standalone="no"?>
<!-- Created with Inkscape (http://www.inkscape.org/) -->

<svg
   width="755.90552"
   height="284.46014"
   viewBox="0 0 200 75.263404"
   version="1.1"
   id="svg5"
   xml:space="preserve"
   xmlns="http://www.w3.org/2000/svg"
   xmlns:svg="http://www.w3.org/2000/svg"><defs
     id="defs2" /><g
     id="layer1"
     style="display:inline"
     transform="translate(0,-2.07396)"><g
       id="g8070"><path
         style="display:inline;fill:#000000;fill-opacity:0;stroke:#ffffff;stroke-width:1.85506;stroke-linecap:butt;stroke-linejoin:miter;stroke-dasharray:none;stroke-opacity:1"
         d="m 150.92118,42.004826 1.00161,8.513673 c 0,0 11.52215,-9.015345 48.03722,-10.590969 h -47.0756"
         id="path474-4" /><path
         style="display:inline;opacity:1;fill:#000000;fill-opacity:0;stroke:#ffffff;stroke-width:1.85506;stroke-linecap:butt;stroke-linejoin:miter;stroke-dasharray:none;stroke-opacity:1"
         d="m 49.078823,42.004826 -1.001608,8.513673 c 0,0 -11.52215,-9.015345 -48.03722933,-10.590969 H 47.115591"
         id="path474" /><path
         style="opacity:1;fill:#2a2a2a;fill-opacity:0;stroke:#ffffff;stroke-width:1.85208;stroke-dasharray:none;stroke-opacity:1"
         d="m 51,37 c 0,0 12.551642,-34 49,-34 36.44836,0 49,34 49,34"
         id="path5155" /><path
         style="opacity:1;fill:#2a2a2a;fill-opacity:0;stroke:#ffffff;stroke-width:1.85208;stroke-linecap:square;stroke-linejoin:miter;stroke-dasharray:none;stroke-opacity:1"
         d="m 53.32786,39.92604 h 93.12712"
         id="path5937" /><path
         id="path6665"
         style="display:inline;opacity:1;fill:#ffffff;fill-opacity:1;stroke:#ffffff;stroke-width:0;stroke-linecap:butt;stroke-linejoin:miter;stroke-dasharray:none;stroke-opacity:1"
         d="M 100.0001,8.0000285 C 72.699731,8.0000285 72,36.5 72,36.5 h 56 c 0,0 -0.69954,-28.4999715 -27.9999,-28.4999715 z M 85.492438,26.250163 c -1.666493,4.441193 -0.882357,7.431009 -2.631255,7.427698 -1.748897,-0.0033 -0.942462,-5.732837 0.230899,-8.733647 1.173365,-3.00081 4.477702,-6.16864 5.780696,-4.887029 1.302994,1.281612 -1.713847,1.751786 -3.38034,6.192978 z" /></g></g><g
     id="layer3"
     style="display:inline"
     transform="translate(0,-2.07396)"><text
       xml:space="preserve"
       style="font-style:normal;font-variant:normal;font-weight:500;font-stretch:normal;font-size:27.5367px;font-family:Roboto;-inkscape-font-specification:'Roboto, Medium';font-variant-ligatures:normal;font-variant-caps:normal;font-variant-numeric:normal;font-variant-east-asian:normal;display:inline;opacity:1;fill:#ffffff;fill-opacity:1;stroke:#4b4b4b;stroke-width:0;stroke-linecap:round;stroke-linejoin:round;stroke-dasharray:none;stroke-opacity:1"
       x="42.459515"
       y="78.295235"
       id="text8126"
       transform="scale(1.0123855,0.98776602)"><tspan
         id="tspan8178"
         x="42.459515"
         y="78.295235"
         style="font-style:normal;font-variant:normal;font-weight:500;font-stretch:normal;font-size:27.5367px;font-family:Roboto;-inkscape-font-specification:'Roboto, Medium';font-variant-ligatures:normal;font-variant-caps:normal;font-variant-numeric:normal;font-variant-east-asian:normal;fill:#ffffff;fill-opacity:1;stroke-width:0">KAMERA</tspan></text></g></svg>
